<svg width="112" height="98" viewBox="0 0 112 98" fill="none" xmlns="http://www.w3.org/2000/svg">
<path d="M101.841 13.7149C104.185 17.2627 105.974 21.1409 107.175 25.2435C105.791 23.4459 104.265 21.704 102.78 20.0081C102.586 19.7871 102.393 19.5668 102.202 19.3474C100.93 17.8923 99.7014 16.4655 98.587 15.0222L101.841 13.7149ZM24.8099 86.9886C26.06 88.4096 27.3308 89.8541 28.6566 91.2095C24.2361 89.2726 20.2005 86.6841 16.6886 83.51C13.1715 80.3312 10.2514 76.6302 8.00082 72.5364C9.41714 73.6602 10.921 74.731 12.4076 75.7895C12.7 75.9977 12.9918 76.2055 13.2821 76.4131C15.2851 77.8453 17.2442 79.2871 19.0418 80.9118C20.8399 82.5369 22.4832 84.3512 24.1358 86.2231C24.3599 86.4771 24.5846 86.7325 24.8099 86.9886ZM3.02601 44.1024C2.64427 44.9675 2.2842 45.8398 1.95524 46.7197C2.49928 40.8529 4.08851 34.9487 6.69429 29.2671C8.34385 25.6705 10.3726 22.2249 12.7349 18.9857C12.6131 20.0224 12.484 21.0472 12.33 22.0591C11.9159 24.7811 11.3324 27.3321 10.2871 29.6113C9.22974 31.9167 8.03105 34.191 6.81923 36.4902C6.75953 36.6035 6.6998 36.7168 6.64006 36.8302C5.37554 39.2301 4.10374 41.66 3.02601 44.1024ZM24.0167 3.32208C21.6589 5.1003 19.4299 7.02357 17.3455 9.07354C18.1632 6.21415 19.4445 3.78508 21.6829 1.93722L24.0167 3.32208ZM82.9656 82.3803C84.6488 81.8303 86.3399 81.2777 87.9799 80.6768C83.7883 84.2095 79.1232 87.2116 74.1246 89.5647C69.1838 91.8907 64.0336 93.5278 58.8434 94.4497C60.652 93.4243 62.4611 92.295 64.2531 91.1762C64.8348 90.813 65.4148 90.451 65.9923 90.094C68.4288 88.5879 70.8545 87.1507 73.3504 85.9757C75.8444 84.8017 78.4153 83.8863 81.0111 83.0228C81.6591 82.8072 82.3118 82.594 82.9656 82.3803ZM106.902 52.1492C106.909 52.1397 106.916 52.1303 106.923 52.1209C105.617 56.602 103.7 60.9892 101.213 65.1608C101.127 63.7376 101.284 62.4363 101.606 61.2223C102.244 58.8115 103.557 56.6476 105.14 54.4728C105.687 53.722 106.288 52.9432 106.902 52.1492Z" stroke="white" stroke-opacity="0.8" stroke-width="3"/>
</svg>
