<svg width="160" height="179" viewBox="0 0 160 179" fill="none" xmlns="http://www.w3.org/2000/svg">
<path d="M2.40787 38.6751C8.07525 30.8174 14.9453 23.9726 22.7095 18.3848C21.8098 19.6184 20.944 20.8859 20.104 22.1746C17.8641 25.6109 15.7791 29.2455 13.7237 32.8284C13.4632 33.2825 13.2032 33.7357 12.9434 34.1876C10.9691 37.6221 9.00416 40.9854 6.90788 44.1257L2.40787 38.6751ZM155.329 96.8766C155.875 95.7768 156.397 94.6697 156.888 93.5535C156.064 103.454 153.56 113.236 149.433 122.458C145.307 131.678 139.667 140.094 132.806 147.368C133.215 146.451 133.604 145.522 133.978 144.585C135.309 141.25 136.464 137.763 137.62 134.27C137.819 133.669 138.018 133.068 138.218 132.467C139.588 128.355 141.01 124.245 142.8 120.246C144.59 116.245 146.741 112.372 148.945 108.5C149.246 107.971 149.548 107.442 149.85 106.913C151.751 103.585 153.659 100.244 155.329 96.8766ZM93.5857 169.825C97.5241 169.807 101.434 169.521 105.262 168.72C93.6028 173.979 80.9631 176.666 68.2153 176.528C60.7432 176.448 53.379 175.398 46.294 173.436C46.7612 173.286 47.2282 173.135 47.6946 172.984C47.9239 172.91 48.1531 172.836 48.3821 172.762C50.6312 172.037 52.8655 171.324 55.087 170.697C59.5394 169.439 63.8512 168.551 67.9537 168.595C72.0132 168.639 76.0821 168.925 80.1706 169.213C80.3746 169.227 80.5786 169.242 80.7826 169.256C85.0593 169.556 89.3573 169.845 93.5857 169.825ZM20.3863 164.858C25.402 168.196 30.7293 170.992 36.2815 173.217C29.6441 174.776 23.7015 175.003 18.6207 171.888L20.3863 164.858ZM112.153 13.3118C111.191 12.0928 110.199 10.9065 109.163 9.77102C118.518 14.1621 127.008 20.2794 134.181 27.869C141.349 35.4539 147.004 44.2998 150.914 53.94C149.697 52.6733 148.413 51.4577 147.089 50.2764C144.664 48.1131 142.064 46.0293 139.479 43.9571C138.663 43.3034 137.849 42.6509 137.042 41.9974C133.653 39.2525 130.359 36.4631 127.441 33.3745C124.523 30.2871 121.981 26.9026 119.522 23.4605C118.905 22.5968 118.291 21.7264 117.677 20.856C115.863 18.2848 114.05 15.7134 112.153 13.3118ZM58.9527 4.35732C58.0238 4.11097 57.0883 3.86972 56.148 3.64693C66.2361 1.55619 76.5967 1.29136 86.7347 2.89436C83.4452 5.10319 80.3344 6.26061 77.3621 6.76357C73.1789 7.47146 69.1446 6.9056 65.0684 5.94948C63.5478 5.59282 62.0507 5.18957 60.5363 4.78164C60.0111 4.64018 59.4838 4.49816 58.9527 4.35732Z" stroke="white" stroke-opacity="0.8" stroke-width="3"/>
</svg>
