<svg width="160" height="155" viewBox="0 0 160 155" fill="none" xmlns="http://www.w3.org/2000/svg">
<path d="M96.8559 151.136C86.7655 153.786 76.2847 154.32 66.0612 152.762C69.0294 152.349 72.0032 151.609 74.9685 150.7C78.326 149.672 81.6902 148.423 85.0307 147.182C85.4536 147.025 85.8761 146.869 86.2981 146.712C89.8476 145.398 93.3685 144.126 96.8559 143.155L96.8559 151.136ZM9.8445 104.9C9.78404 107.732 9.88627 110.517 10.3246 113.234C5.29501 103.767 2.29949 93.2995 1.59212 82.5073C0.882865 71.6861 2.49706 60.8884 6.26957 50.8226C6.16228 53.8034 6.43729 56.8319 6.894 59.8865C7.31545 62.7053 7.89491 65.5643 8.47633 68.4329C8.66084 69.3433 8.84556 70.2547 9.02548 71.166C9.77432 74.959 10.4433 78.7657 10.6928 82.5727C10.9423 86.3792 10.7706 90.1579 10.5153 93.8914C10.4505 94.838 10.3803 95.7828 10.3103 96.7245C10.105 99.4868 9.90164 102.223 9.8445 104.9ZM10.7588 38.9796C10.0769 40.1606 9.42776 41.3573 8.81162 42.5683C9.26989 41.315 9.84256 40.0777 10.5471 38.8574C11.2982 37.5565 12.1339 36.3651 13.0441 35.2677C12.249 36.4809 11.4868 37.7186 10.7588 38.9796ZM26.5629 24.6502C24.0454 25.7669 21.6219 26.9998 19.3684 28.4529C26.0975 20.4783 34.4272 13.9347 43.8715 9.27725C53.2879 4.63362 63.5172 2.01049 73.9085 1.51535C71.5662 2.36722 69.2972 3.45636 67.0596 4.67941C64.3633 6.15322 61.6999 7.82883 59.0091 9.52174C58.5453 9.81349 58.0808 10.1057 57.6151 10.3976C54.4407 12.3869 51.2064 14.3613 47.7789 16.0516C44.3509 17.742 40.7585 19.1342 37.1617 20.4839C36.6688 20.6689 36.1757 20.8531 35.6829 21.0372C32.5868 22.1939 29.5034 23.3458 26.5629 24.6502ZM87.5938 1.08877C86.1149 0.894066 84.6335 0.742687 83.1516 0.634337C84.6015 0.579717 86.0899 0.644273 87.6257 0.846463C102.792 2.84318 117.026 9.29248 128.527 19.3788C134.193 24.3476 139.071 30.0891 143.035 36.4027C141.852 35.889 140.652 35.3855 139.452 34.8819C139.259 34.8008 139.066 34.7197 138.872 34.6386C136.976 33.8422 135.085 33.0406 133.246 32.1872C129.565 30.4789 126.124 28.5749 123.33 26.1241C120.632 23.7583 118.064 21.2245 115.505 18.6987C115.375 18.5707 115.245 18.4428 115.116 18.3149C112.431 15.6666 109.749 13.0371 106.949 10.6569C101.348 5.89433 95.2397 2.09538 87.5938 1.08877ZM153.013 56.5459C151.264 50.2534 148.744 44.237 145.533 38.6244C152.119 41.7241 157.564 45.4 159.426 51.8028L153.013 56.5459ZM16.0139 124.412C15.192 123.318 14.4922 122.204 13.8984 121.068C14.6728 122.2 15.4787 123.313 16.3154 124.406C16.2153 124.407 16.1148 124.409 16.0139 124.412ZM52.7468 150.539C54.0765 150.991 55.4157 151.405 56.7629 151.782C55.3902 151.563 54.0251 151.231 52.6683 150.771C51.6441 150.423 50.6985 149.988 49.8165 149.478C50.7846 149.851 51.7616 150.205 52.7468 150.539ZM43.5002 145.258C43.6677 145.458 43.8372 145.655 44.0089 145.851C34.1194 140.998 25.3713 134.041 18.3984 125.434C22.8171 125.64 26.2244 126.771 29.0026 128.445C32.3132 130.441 34.766 133.23 36.9803 136.238C37.7893 137.337 38.5738 138.478 39.3586 139.619C40.6974 141.565 42.0371 143.512 43.5002 145.258Z" stroke="white"/>
</svg>
