<svg width="160" height="179" viewBox="0 0 160 179" fill="none" xmlns="http://www.w3.org/2000/svg">
<path d="M157.865 38.6751C152.198 30.8174 145.328 23.9725 137.563 18.3848C138.463 19.6184 139.329 20.8858 140.169 22.1745C142.409 25.6109 144.494 29.2455 146.549 32.8284C146.81 33.2825 147.07 33.7357 147.329 34.1876C149.304 37.622 151.269 40.9854 153.365 44.1257L157.865 38.6751ZM4.94353 96.8765C4.39804 95.7767 3.87553 94.6696 3.38443 93.5535C4.20859 103.454 6.71288 113.236 10.84 122.458C14.9662 131.678 20.6053 140.094 27.4667 147.368C27.0579 146.451 26.6687 145.522 26.2946 144.585C24.9639 141.25 23.8091 137.763 22.6526 134.27C22.4536 133.669 22.2545 133.068 22.0545 132.467C20.6849 128.355 19.2627 124.245 17.4729 120.246C15.6825 116.245 13.5317 112.372 11.3279 108.5C11.027 107.971 10.7249 107.442 10.4226 106.913C8.52209 103.585 6.61378 100.244 4.94353 96.8765ZM66.6872 169.825C62.7487 169.807 58.8392 169.521 55.0104 168.72C66.67 173.979 79.3097 176.666 92.0575 176.528C99.5296 176.448 106.894 175.398 113.979 173.436C113.512 173.286 113.045 173.135 112.578 172.984C112.349 172.91 112.12 172.836 111.891 172.762C109.642 172.037 107.407 171.324 105.186 170.697C100.733 169.439 96.4216 168.551 92.3191 168.595C88.2596 168.639 84.1907 168.925 80.1022 169.213C79.8982 169.227 79.6943 169.241 79.4902 169.256C75.2135 169.556 70.9155 169.845 66.6872 169.825ZM139.887 164.858C134.871 168.196 129.544 170.992 123.991 173.217C130.629 174.776 136.571 175.003 141.652 171.888L139.887 164.858ZM48.1194 13.3118C49.0818 12.0927 50.0736 10.9064 51.1101 9.77099C41.7547 14.162 33.2646 20.2794 26.0918 27.869C18.9234 35.4539 13.2687 44.2997 9.35861 53.94C10.5759 52.6733 11.86 51.4577 13.184 50.2764C15.6085 48.113 18.2086 46.0292 20.7942 43.957C21.6098 43.3033 22.424 42.6508 23.2308 41.9973C26.6195 39.2524 29.9134 36.463 32.8323 33.3745C35.7502 30.287 38.2916 26.9026 40.7508 23.4605C41.3679 22.5967 41.9818 21.7264 42.5958 20.856C44.4094 18.2848 46.2232 15.7134 48.1194 13.3118ZM101.32 4.35729C102.249 4.11094 103.185 3.86968 104.125 3.6469C94.0368 1.55616 83.6761 1.29133 73.5381 2.89433C76.8277 5.10316 79.9384 6.26057 82.9107 6.76354C87.0939 7.47143 91.1282 6.90557 95.2044 5.94945C96.725 5.59279 98.2221 5.18954 99.7366 4.78161C100.262 4.64015 100.789 4.49813 101.32 4.35729Z" stroke="white" stroke-opacity="0.8" stroke-width="3"/>
</svg>
