<svg width="95" height="107" viewBox="0 0 95 107" fill="none" xmlns="http://www.w3.org/2000/svg">
<mask id="path-1-inside-1_1_54" fill="white">
<path d="M0.288383 23.9655C6.36982 15.27 14.7914 8.50184 24.4882 4.51704C34.1851 0.532245 44.7216 -0.490263 54.7654 1.57881C64.8091 3.6479 73.9091 8.71563 80.9145 16.1412C87.9198 23.5667 92.516 33.0166 94.1217 43.2957C95.7275 53.5749 94.2707 64.2217 89.9355 73.8898C85.6004 83.5578 78.5817 91.8129 69.7669 97.6112C60.9521 103.409 50.7371 106.49 40.4138 106.464C30.0904 106.439 20.1223 103.307 11.77 97.4655L12.2616 96.7627C20.4804 102.511 30.2891 105.592 40.4474 105.618C50.6057 105.643 60.6574 102.612 69.3313 96.906C78.0052 91.2005 84.9117 83.0773 89.1776 73.5638C93.4434 64.0503 94.8769 53.5737 93.2968 43.4589C91.7168 33.344 87.1941 24.0452 80.3007 16.7384C73.4073 9.43154 64.4528 4.44481 54.5696 2.4088C44.6864 0.372798 34.3183 1.37897 24.7765 5.30006C15.2347 9.22116 6.94767 15.8811 0.963451 24.4376L0.288383 23.9655Z"/>
</mask>
<path d="M0.288383 23.9655C6.36982 15.27 14.7914 8.50184 24.4882 4.51704C34.1851 0.532245 44.7216 -0.490263 54.7654 1.57881C64.8091 3.6479 73.9091 8.71563 80.9145 16.1412C87.9198 23.5667 92.516 33.0166 94.1217 43.2957C95.7275 53.5749 94.2707 64.2217 89.9355 73.8898C85.6004 83.5578 78.5817 91.8129 69.7669 97.6112C60.9521 103.409 50.7371 106.49 40.4138 106.464C30.0904 106.439 20.1223 103.307 11.77 97.4655L12.2616 96.7627C20.4804 102.511 30.2891 105.592 40.4474 105.618C50.6057 105.643 60.6574 102.612 69.3313 96.906C78.0052 91.2005 84.9117 83.0773 89.1776 73.5638C93.4434 64.0503 94.8769 53.5737 93.2968 43.4589C91.7168 33.344 87.1941 24.0452 80.3007 16.7384C73.4073 9.43154 64.4528 4.44481 54.5696 2.4088C44.6864 0.372798 34.3183 1.37897 24.7765 5.30006C15.2347 9.22116 6.94767 15.8811 0.963451 24.4376L0.288383 23.9655Z" stroke="white" stroke-width="2" mask="url(#path-1-inside-1_1_54)"/>
</svg>
