<svg width="160" height="179" viewBox="0 0 160 179" fill="none" xmlns="http://www.w3.org/2000/svg">
<path d="M157.865 38.6751C152.198 30.8174 145.328 23.9725 137.563 18.3848C138.463 19.6184 139.329 20.8858 140.169 22.1745C142.409 25.6109 144.494 29.2455 146.549 32.8284C146.81 33.2825 147.07 33.7357 147.33 34.1876C149.304 37.622 151.269 40.9854 153.365 44.1257L157.865 38.6751ZM4.94365 96.8765C4.39817 95.7767 3.87565 94.6696 3.38456 93.5535C4.20871 103.454 6.713 113.236 10.8401 122.458C14.9663 131.678 20.6055 140.094 27.4668 147.368C27.0581 146.451 26.6688 145.522 26.2947 144.585C24.964 141.25 23.8092 137.763 22.6527 134.27C22.4537 133.669 22.2546 133.068 22.0546 132.467C20.6851 128.355 19.2628 124.245 17.473 120.246C15.6827 116.245 13.5318 112.372 11.328 108.5C11.0271 107.971 10.725 107.442 10.4227 106.913C8.52221 103.585 6.6139 100.244 4.94365 96.8765ZM66.6873 169.825C62.7488 169.807 58.8393 169.521 55.0105 168.72C66.6701 173.979 79.3098 176.666 92.0576 176.528C99.5297 176.448 106.894 175.398 113.979 173.436C113.512 173.286 113.045 173.135 112.578 172.984C112.349 172.91 112.12 172.836 111.891 172.762C109.642 172.037 107.407 171.324 105.186 170.697C100.734 169.439 96.4218 168.551 92.3192 168.595C88.2597 168.639 84.1909 168.925 80.1023 169.213C79.8984 169.227 79.6944 169.241 79.4903 169.256C75.2136 169.556 70.9157 169.845 66.6873 169.825ZM139.887 164.858C134.871 168.196 129.544 170.992 123.991 173.217C130.629 174.776 136.571 175.003 141.652 171.888L139.887 164.858ZM48.1195 13.3118C49.0819 12.0927 50.0738 10.9064 51.1102 9.77099C41.7548 14.162 33.2647 20.2794 26.0919 27.869C18.9235 35.4539 13.2688 44.2997 9.35873 53.94C10.576 52.6733 11.8602 51.4577 13.1841 50.2764C15.6086 48.113 18.2087 46.0292 20.7943 43.957C21.6099 43.3033 22.4241 42.6508 23.2309 41.9973C26.6197 39.2524 29.9135 36.463 32.8324 33.3745C35.7503 30.287 38.2917 26.9026 40.7509 23.4605C41.368 22.5967 41.982 21.7264 42.5959 20.856C44.4096 18.2848 46.2233 15.7134 48.1195 13.3118ZM101.32 4.35729C102.249 4.11094 103.185 3.86968 104.125 3.6469C94.0369 1.55616 83.6762 1.29133 73.5382 2.89433C76.8278 5.10316 79.9386 6.26057 82.9108 6.76354C87.0941 7.47143 91.1283 6.90557 95.2045 5.94945C96.7251 5.59279 98.2222 5.18954 99.7367 4.78161C100.262 4.64015 100.789 4.49813 101.32 4.35729Z" stroke="white" stroke-opacity="0.8" stroke-width="3"/>
</svg>
