<svg width="160" height="178" viewBox="0 0 160 178" fill="none" xmlns="http://www.w3.org/2000/svg">
<path d="M2.65958 38.6044C8.32696 30.7467 15.197 23.9019 22.9612 18.3141C22.0615 19.5477 21.1957 20.8152 20.3557 22.1039C18.1158 25.5403 16.0308 29.1749 13.9754 32.7578C13.7149 33.2118 13.4549 33.6651 13.1951 34.117C11.2208 37.5514 9.25587 40.9147 7.15959 44.0551L2.65958 38.6044ZM155.581 96.8059C156.126 95.7061 156.649 94.599 157.14 93.4829C156.316 103.384 153.812 113.166 149.685 122.388C145.558 131.607 139.919 140.024 133.058 147.297C133.467 146.38 133.856 145.452 134.23 144.514C135.561 141.18 136.715 137.692 137.872 134.199C138.071 133.598 138.27 132.997 138.47 132.397C139.84 128.284 141.262 124.175 143.052 120.175C144.842 116.175 146.993 112.301 149.197 108.429C149.498 107.901 149.8 107.372 150.102 106.842C152.002 103.515 153.911 100.173 155.581 96.8059ZM93.8374 169.754C97.7758 169.736 101.685 169.451 105.514 168.65C93.8545 173.909 81.2148 176.595 68.467 176.458C60.9949 176.377 53.6307 175.328 46.5457 173.365C47.0129 173.215 47.4799 173.064 47.9463 172.914C48.1756 172.84 48.4048 172.766 48.6338 172.692C50.8829 171.966 53.1172 171.254 55.3388 170.626C59.7912 169.368 64.1029 168.48 68.2054 168.524C72.2649 168.568 76.3338 168.854 80.4224 169.142C80.6263 169.156 80.8303 169.171 81.0343 169.185C85.311 169.485 89.609 169.774 93.8374 169.754ZM20.638 164.787C25.6537 168.126 30.981 170.921 36.5332 173.146C29.8958 174.705 23.9532 174.932 18.8724 171.817L20.638 164.787ZM112.405 13.2411C111.443 12.0221 110.451 10.8358 109.414 9.70035C118.77 14.0914 127.26 20.2087 134.433 27.7983C141.601 35.3832 147.256 44.2291 151.166 53.8693C149.949 52.6027 148.664 51.3871 147.341 50.2057C144.916 48.0424 142.316 45.9586 139.73 43.8864C138.915 43.2327 138.101 42.5802 137.294 41.9267C133.905 39.1818 130.611 36.3924 127.692 33.3038C124.774 30.2164 122.233 26.8319 119.774 23.3898C119.157 22.5261 118.543 21.6557 117.929 20.7853C116.115 18.2141 114.301 15.6427 112.405 13.2411ZM59.2044 4.28664C58.2755 4.04029 57.34 3.79904 56.3997 3.57625C66.4878 1.48551 76.8484 1.22068 86.9864 2.82368C83.6969 5.03251 80.5861 6.18993 77.6139 6.69289C73.4306 7.40078 69.3964 6.83492 65.3201 5.8788C63.7996 5.52214 62.3024 5.11889 60.788 4.71096C60.2628 4.5695 59.7355 4.42748 59.2044 4.28664Z" stroke="white" stroke-opacity="0.8" stroke-width="3"/>
</svg>
