<svg width="104" height="238" viewBox="0 0 104 238" fill="none" xmlns="http://www.w3.org/2000/svg">
<path d="M88.5491 223.124C86.4867 220.191 84.4292 217.261 82.3766 214.335C84.9052 213.387 87.4183 212.446 89.9159 211.511C90.7336 212.065 91.5275 212.613 92.2841 213.175C93.05 213.734 93.8181 214.353 94.5697 215.04C95.3306 215.723 96.0896 216.484 96.861 217.332C97.647 218.189 98.4373 219.167 99.2662 220.299C100.591 222.095 101.568 223.828 102.21 225.523C102.841 227.222 103.124 228.797 103.043 230.239C102.953 231.684 102.507 232.961 101.692 234.061C100.867 235.165 99.6795 236.028 98.1096 236.626C96.461 237.27 94.7425 237.543 92.9542 237.445C91.1659 237.347 89.3896 236.923 87.6491 236.178C85.8899 235.441 84.2287 234.404 82.6376 233.08C81.0361 231.729 79.605 230.128 78.3642 228.299C77.6121 227.199 77.0349 226.106 76.6462 225.002C76.2337 223.891 75.9786 222.826 75.8426 221.792C75.7211 220.766 75.7198 219.802 75.8532 218.907C75.9866 218.012 76.2041 217.222 76.5241 216.53C77.6368 217.014 78.7495 217.499 79.8622 217.984C79.5649 218.651 79.3339 219.324 79.165 220.018C78.9816 220.703 78.8976 221.394 78.9089 222.11C78.9005 222.803 78.9967 223.516 79.2017 224.233C79.4159 224.946 79.7679 225.682 80.2607 226.393C81.0325 227.517 81.9212 228.472 82.9649 229.275C83.9941 230.068 85.1205 230.669 86.3159 231.091C87.5155 231.496 88.7686 231.68 90.0908 231.684C91.3986 231.679 92.7205 231.407 94.043 230.891C95.3708 230.387 96.3961 229.741 97.1136 228.94C97.8218 228.142 98.2483 227.255 98.4406 226.291C98.5853 225.315 98.497 224.293 98.1611 223.213C97.8107 222.124 97.2481 221.042 96.4441 219.946C95.9721 219.288 95.4423 218.729 94.8711 218.201C94.2864 217.694 93.6521 217.253 92.9828 216.886C91.2372 217.548 89.4855 218.212 87.7275 218.878C88.5761 220.079 89.4229 221.275 90.268 222.467C89.6968 222.69 89.1238 222.909 88.5491 223.124ZM84.565 200.731C85.7198 202.312 86.8747 203.894 88.0296 205.475C83.1986 207.271 78.3117 209.089 73.369 210.929C72.2568 209.31 71.1447 207.692 70.0326 206.073C70.4024 205.939 70.7722 205.804 71.142 205.67C70.2459 205.3 69.4273 204.854 68.6821 204.348C67.9266 203.816 67.2807 203.18 66.7868 202.438C66.488 202.003 66.27 201.583 66.1183 201.167C65.9562 200.725 65.8863 200.354 65.8734 199.991C65.8564 199.645 65.9254 199.327 66.0534 199.078C66.1763 198.815 66.3832 198.658 66.644 198.556C66.8954 198.458 67.1729 198.426 67.4856 198.457C67.7652 198.485 68.0708 198.58 68.3495 198.717C68.6282 198.853 68.8987 199.023 69.162 199.257C69.4149 199.465 69.6555 199.723 69.8547 200.013C70.1234 200.399 70.2771 200.737 70.3344 201.021C70.3917 201.305 70.4252 201.583 70.4442 201.851C70.4528 202.093 70.4707 202.331 70.5084 202.593C70.5263 202.831 70.6447 203.106 70.8636 203.419C70.9736 203.591 71.1488 203.737 71.3746 203.848C71.6057 203.972 71.874 204.081 72.1703 204.18C72.4707 204.262 72.7804 204.34 73.1407 204.383C73.4877 204.447 73.844 204.507 74.1992 204.537C77.6855 203.256 81.1407 201.987 84.565 200.731ZM72.5965 183.649C73.4108 184.771 73.9797 185.898 74.326 187.003C74.6722 188.109 74.8082 189.144 74.7101 190.102C74.6265 191.069 74.3118 191.912 73.7992 192.634C73.2534 193.353 72.5076 193.889 71.5751 194.223C70.447 194.633 69.2545 194.823 68.0109 194.773C66.7631 194.74 65.5399 194.467 64.3196 194.009C63.1085 193.548 61.9324 192.873 60.8389 191.998C59.7215 191.117 58.7344 190.047 57.8815 188.772C57.1335 187.654 56.5988 186.561 56.2971 185.514C55.9955 184.467 55.9 183.509 56.0252 182.648C56.1317 181.794 56.4258 181.036 56.9178 180.399C57.4098 179.762 58.0688 179.306 58.8988 179.012C61.4198 182.715 63.9471 186.417 66.4805 190.115C67.2432 189.787 67.9188 189.4 68.4836 188.95C69.042 188.455 69.4534 187.942 69.726 187.376C69.9986 186.81 70.1004 186.218 70.0643 185.604C70.0138 184.98 69.7603 184.359 69.3278 183.747C68.9595 183.217 68.5126 182.732 68.0004 182.274C67.479 181.819 66.9359 181.418 66.367 181.089C65.7877 180.733 65.221 180.464 64.6337 180.28C64.0318 180.086 63.4902 179.991 62.9756 179.993C62.5133 179.121 62.0497 178.255 61.5846 177.395C62.4906 177.378 63.4641 177.534 64.4907 177.853C65.5079 178.176 66.5201 178.623 67.518 179.198C68.5107 179.76 69.4455 180.422 70.3422 181.205C71.2192 181.966 71.9803 182.787 72.5965 183.649ZM61.2315 185.118C60.8414 185.301 60.5383 185.542 60.2985 185.835C60.0493 186.132 59.8955 186.452 59.8038 186.795C59.7411 187.156 59.7395 187.509 59.8343 187.917C59.9228 188.28 60.0972 188.672 60.3566 189.061C60.561 189.364 60.8347 189.625 61.1695 189.877C61.5084 190.112 61.8741 190.307 62.2999 190.462C62.7019 190.611 63.1441 190.699 63.6225 190.742C64.0719 190.766 64.5337 190.738 64.9974 190.634C63.7421 188.795 62.4868 186.957 61.2315 185.118ZM51.6731 166.237C52.1552 166.646 52.6558 167.048 53.2134 167.458C53.7379 167.866 54.2695 168.21 54.7908 168.527C55.3203 168.811 55.8144 169.031 56.2734 169.189C56.7074 169.311 57.0998 169.326 57.4217 169.215C57.6783 169.13 57.8915 169.016 58.0652 168.857C58.2245 168.687 58.3506 168.515 58.4383 168.328C58.5023 168.134 58.5279 167.925 58.5203 167.713C58.4849 167.513 58.4069 167.313 58.2721 167.106C58.0179 166.73 57.6457 166.354 57.1565 166.009C56.6911 165.67 56.1543 165.313 55.5263 164.915C54.2574 165.349 52.9731 165.79 51.6731 166.237ZM55.124 159.05C56.221 160.685 57.3224 162.313 58.4283 163.934C58.0861 164.047 57.7487 164.164 57.4161 164.284C57.7633 164.485 58.1104 164.686 58.4389 164.895C58.7674 165.104 59.097 165.343 59.4091 165.619C59.7397 165.888 60.0673 166.205 60.4168 166.605C60.7559 166.978 61.1023 167.425 61.4758 167.968C61.9831 168.689 62.3619 169.384 62.6072 170.039C62.8379 170.684 62.9619 171.249 62.9325 171.751C62.9176 172.262 62.7826 172.713 62.5118 173.064C62.2421 173.445 61.8686 173.699 61.3791 173.875C60.8616 174.062 60.3149 174.091 59.7453 174.007C59.1706 173.91 58.5791 173.743 57.974 173.459C57.3545 173.164 56.7275 172.796 56.0974 172.338C55.4579 171.883 54.8308 171.377 54.1881 170.831C53.5454 170.286 52.9255 169.716 52.2951 169.12C51.6596 168.51 51.0386 167.91 50.4269 167.306C50.2824 167.138 50.1365 166.975 49.9893 166.818C49.5256 166.969 49.0606 167.125 48.5941 167.287C47.6989 167.606 47.1942 168.018 47.081 168.552C46.944 169.081 47.1022 169.678 47.512 170.315C47.7621 170.707 48.0286 171.032 48.3012 171.263C48.5552 171.5 48.8164 171.674 49.0847 171.784C49.3385 171.884 49.6047 171.933 49.8501 171.929C50.0955 171.925 50.3201 171.868 50.5395 171.798C50.8055 171.709 51.0912 171.643 51.3883 171.634C51.6803 171.612 51.9692 171.637 52.2707 171.749C52.5617 171.835 52.856 172.011 53.1722 172.27C53.4738 172.52 53.7694 172.865 54.0641 173.316C54.5278 174.008 54.7295 174.635 54.6826 175.174C54.6078 175.724 54.309 176.086 53.8008 176.269C53.3113 176.445 52.7201 176.416 52.0509 176.187C51.3672 175.949 50.6501 175.57 49.9225 175.027C49.1856 174.487 48.4444 173.827 47.7217 173.021C46.9855 172.237 46.3123 171.366 45.6929 170.413C44.9386 169.252 44.3915 168.209 44.0331 167.292C43.6798 166.388 43.5007 165.6 43.506 164.954C43.501 164.282 43.6514 163.733 43.9719 163.316C44.2726 162.877 44.7195 162.565 45.3073 162.365C48.6848 161.209 51.957 160.104 55.124 159.05ZM40.9291 158.882C40.4626 159.044 39.9869 159.209 39.5019 159.378C39.1407 158.784 38.6741 158.277 38.1061 157.84C37.505 157.401 36.8594 157.04 36.156 156.779C35.4288 156.511 34.6572 156.322 33.866 156.249C33.0406 156.142 32.2288 156.153 31.411 156.258C30.8493 155.333 30.2923 154.412 29.7403 153.494C31.379 152.925 32.9959 152.364 34.5911 151.813C33.7996 150.447 33.0157 149.073 32.2393 147.69C32.8396 147.486 33.4337 147.285 34.0215 147.086C34.7882 148.462 35.5659 149.838 36.3547 151.215C39.3285 150.217 42.1843 149.264 44.9222 148.358C45.1602 148.28 45.3339 148.12 45.3968 147.896C45.4835 147.678 45.4366 147.421 45.2508 147.11C45.1501 146.935 44.9977 146.765 44.8028 146.596C44.5934 146.417 44.3799 146.256 44.1623 146.111C43.9249 145.943 43.7177 145.825 43.5343 145.713C43.327 145.594 43.183 145.528 43.0825 145.491C43.0768 144.798 43.0679 144.107 43.056 143.417C43.5159 143.605 43.9822 143.837 44.435 144.089C44.8785 144.345 45.319 144.647 45.7523 145.014C46.2053 145.404 46.6459 145.845 47.0991 146.373C47.5378 146.891 47.9849 147.513 48.4456 148.252C48.8565 148.919 49.1763 149.545 49.3572 150.118C49.5329 150.678 49.6164 151.166 49.5745 151.581C49.5378 152.009 49.385 152.36 49.1266 152.66C48.8722 152.943 48.5163 153.159 48.0682 153.303C45.2496 154.241 42.3365 155.221 39.3289 156.243C39.8575 157.12 40.3908 157.999 40.9291 158.882ZM35.1882 121.224C35.6269 122.539 35.9071 123.778 36.0391 124.968C36.1898 126.15 36.2047 127.232 36.06 128.208C35.9008 129.174 35.5996 129.997 35.119 130.69C34.6094 131.365 33.9464 131.838 33.1246 132.098C32.102 132.421 31.0388 132.53 29.939 132.408C28.8102 132.267 27.7308 131.923 26.6822 131.383C25.6139 130.819 24.652 130.061 23.7955 129.078C22.9285 128.069 22.2435 126.865 21.7633 125.444C21.3402 124.169 21.1553 122.954 21.1703 121.784C21.1946 120.61 21.3878 119.538 21.7552 118.583C22.108 117.617 22.5936 116.799 23.2357 116.135C23.8488 115.451 24.5636 114.972 25.3668 114.72C26.595 118.979 27.9301 123.193 29.3721 127.359C30.0893 127.078 30.7235 126.723 31.2696 126.28C31.8064 125.84 32.2137 125.344 32.5236 124.763C32.82 124.203 32.9776 123.59 33.0492 122.949C33.1105 122.281 33.0205 121.612 32.797 120.902C32.5953 120.276 32.3388 119.702 32.0357 119.147C31.7233 118.594 31.3851 118.114 31.0159 117.691C30.6363 117.242 30.2414 116.89 29.8113 116.614C29.3864 116.351 28.9648 116.179 28.5433 116.144C28.3818 115.145 28.2252 114.149 28.0734 113.156C28.8076 113.222 29.5441 113.485 30.2737 113.951C30.9846 114.424 31.6533 115.036 32.2797 115.787C32.9009 116.525 33.4601 117.379 33.9708 118.329C34.4618 119.256 34.8742 120.228 35.1882 121.224ZM25.815 121.608C25.4249 121.791 25.0835 122.017 24.7971 122.328C24.5014 122.643 24.2719 122.962 24.1068 123.364C23.9499 123.732 23.8603 124.134 23.8423 124.555C23.8387 124.986 23.8869 125.411 24.049 125.853C24.1603 126.193 24.3553 126.5 24.6063 126.785C24.8707 127.049 25.1764 127.282 25.5277 127.467C25.8789 127.651 26.2653 127.761 26.6878 127.825C27.0918 127.897 27.5215 127.898 27.9521 127.791C27.2149 125.74 26.5025 123.679 25.815 121.608ZM20.4068 98.2089C19.6979 98.4554 19.1642 98.8478 18.8521 99.3682C18.5401 99.8885 18.4259 100.393 18.5197 100.908C18.5812 101.175 18.6665 101.448 18.7994 101.733C18.9375 102.032 19.1139 102.346 19.3328 102.659C19.5413 102.945 19.7747 103.267 20.0547 103.572C20.3202 103.866 20.5991 104.14 20.9018 104.421C24.1902 103.33 27.3314 102.301 30.3253 101.335C30.6723 103.304 31.0315 105.258 31.4027 107.197C27.3565 108.492 22.9772 109.933 18.2647 111.519C17.8376 109.602 17.4243 107.674 17.0248 105.736C17.4105 105.606 17.7962 105.476 18.1819 105.346C17.4862 104.637 16.9239 103.83 16.5033 102.891C16.063 101.929 15.7542 100.947 15.5664 99.9167C15.4256 99.1443 15.3976 98.3584 15.5156 97.5615C15.6243 96.7682 15.8439 96.0388 16.1599 95.3637C16.4665 94.6922 16.8561 94.0956 17.3483 93.5968C17.8166 93.092 18.3515 92.7298 18.958 92.5234C22.2395 91.4146 25.4186 90.3459 28.4952 89.3172C28.7732 91.2925 29.0592 93.2698 29.3532 95.2491C26.4842 96.1864 23.5021 97.173 20.4068 98.2089ZM26.9344 74.2517C27.0937 75.6758 27.0676 77.0651 26.8747 78.4123C26.6818 79.7595 26.3521 80.9762 25.8825 82.1098C25.4025 83.2168 24.8229 84.1788 24.1054 84.9802C23.3734 85.7719 22.5665 86.3171 21.666 86.623C20.5793 87.0017 19.5109 87.0975 18.4856 86.9465C17.4417 86.8028 16.5021 86.4039 15.6439 85.7739C14.7909 85.1573 14.0474 84.2986 13.4464 83.2004C12.8361 82.1058 12.4119 80.8005 12.1779 79.2677C11.9835 77.9187 11.9652 76.608 12.1427 75.3588C12.3015 74.1169 12.6252 72.9944 13.0898 71.9854C13.5451 70.98 14.1186 70.1123 14.8341 69.3883C15.5445 68.651 16.3286 68.13 17.1866 67.8254C17.798 72.357 18.4218 76.8838 19.0581 81.4057C19.8353 81.0867 20.5575 80.6818 21.2195 80.178C21.8908 79.6705 22.4512 79.099 22.9194 78.4563C23.3772 77.7871 23.7118 77.1047 23.9552 76.3813C24.1789 75.635 24.2421 74.8902 24.1437 74.1165C24.0683 73.4564 23.9091 72.8291 23.6712 72.2479C23.4292 71.6836 23.1417 71.1677 22.8098 70.7304C22.4633 70.2835 22.0963 69.9213 21.6673 69.6753C21.232 69.3857 20.8021 69.2472 20.3527 69.2236C20.3368 68.1572 20.3195 67.0965 20.3009 66.0414C21.1096 66.0778 21.8968 66.3064 22.6491 66.7479C23.3921 67.1931 24.0701 67.8015 24.6634 68.5504C25.266 69.2956 25.7548 70.1618 26.1578 71.1382C26.5474 72.1351 26.8056 73.1529 26.9344 74.2517ZM16.6176 75.1883C16.1995 75.3823 15.8261 75.6355 15.4931 75.9648C15.1653 76.3074 14.8945 76.6585 14.6776 77.065C14.47 77.4679 14.3205 77.9094 14.2424 78.369C14.1685 78.8116 14.1566 79.2759 14.2204 79.7413C14.2758 80.1028 14.4109 80.4484 14.5966 80.7589C14.7865 81.0524 15.0312 81.2939 15.3317 81.5135C15.6219 81.7066 15.9669 81.8476 16.3563 81.9099C16.7323 81.9929 17.1381 81.9875 17.5739 81.8938C17.2555 79.6687 16.9367 77.4335 16.6176 75.1883ZM24.3967 53.3622C24.6037 55.3754 24.809 57.3843 25.0125 59.3887C20.247 61.0774 15.3807 62.8106 10.4137 64.5882C10.1453 62.6194 9.87694 60.6506 9.60855 58.6817C9.97837 58.5474 10.3544 58.4107 10.7366 58.2715C10.1199 57.7923 9.59937 57.2296 9.17914 56.5664C8.74959 55.9068 8.46173 55.1153 8.33524 54.2147C8.26931 53.6888 8.26553 53.1846 8.31352 52.6755C8.37082 52.1628 8.45821 51.6996 8.60884 51.2883C8.74908 50.8504 8.93911 50.485 9.17482 50.209C9.40014 49.9065 9.64319 49.7042 9.92781 49.6083C10.1886 49.5064 10.4526 49.4951 10.7095 49.548C10.9477 49.6081 11.1684 49.7058 11.3592 49.8917C11.5354 50.068 11.6993 50.2951 11.8374 50.5935C11.9599 50.8521 12.0515 51.1688 12.0923 51.5205C12.1561 51.986 12.1525 52.4164 12.0795 52.7514C11.9878 53.0937 11.9002 53.4191 11.7929 53.7215C11.7043 54.0166 11.6063 54.3154 11.527 54.6069C11.4383 54.902 11.4222 55.2454 11.4734 55.6238C11.4996 55.8281 11.5764 55.9973 11.7382 56.1639C11.8761 56.3245 12.0554 56.4537 12.273 56.5985C12.4896 56.713 12.7341 56.8167 13.0159 56.9058C13.2935 57.0118 13.5752 57.1009 13.86 57.1428C17.4126 55.8668 20.9249 54.6066 24.3967 53.3622ZM6.13403 24.7353C6.70254 24.5234 7.26311 24.3094 7.81574 24.0934C7.97472 25.2878 8.1368 26.4809 8.30198 27.6729C8.64928 27.2154 9.04118 26.817 9.46729 26.4513C9.88408 26.0892 10.3745 25.8056 10.9054 25.5982C11.7861 25.2693 12.5968 25.2283 13.3561 25.4679C14.0916 25.7015 14.7507 26.1793 15.3243 26.9052C15.902 27.6142 16.394 28.5711 16.7942 29.7325C17.1613 30.8915 17.4354 32.2248 17.602 33.7226C17.6554 34.1614 17.6767 34.6281 17.6846 35.1153C17.7018 35.599 17.6941 36.0463 17.6843 36.4332C17.8709 36.6361 18.0886 36.7809 18.3227 36.858C18.5661 36.9314 18.8156 36.9105 19.0671 36.8122C19.1468 36.7964 19.2109 36.7407 19.274 36.6548C19.337 36.5688 19.3741 36.4164 19.4131 36.1867C19.448 35.9738 19.4694 35.6437 19.4874 35.2229C19.4962 34.8058 19.4903 34.2411 19.4603 33.5327C19.4356 32.8375 19.3806 31.9549 19.3254 30.9345C19.2609 29.9178 19.1691 28.6665 19.0419 27.2145C18.9521 25.8859 18.9485 24.7227 19.0176 23.7457C19.1064 22.7916 19.2565 21.9668 19.4927 21.3075C19.7383 20.6446 20.0451 20.111 20.4422 19.726C20.8154 19.3349 21.2489 19.043 21.7425 18.85C22.6419 18.5139 23.4588 18.5164 24.2172 18.8636C24.9653 19.1842 25.6536 19.8193 26.244 20.7531C26.8303 21.7038 27.3227 22.9364 27.7079 24.4714C28.1024 26.0028 28.3781 27.7798 28.5454 29.829C28.832 33.5018 28.783 36.371 28.3829 38.3968C28.0159 40.4249 27.3921 41.6034 26.5062 41.919C26.1709 42.05 25.8395 42.0263 25.4945 41.8853C25.1537 41.7274 24.8107 41.509 24.4458 41.2072C24.0995 40.8981 23.7418 40.5323 23.3872 40.1192C23.0325 39.7062 22.6819 39.2763 22.3128 38.8536C22.201 39.6941 22.0135 40.3956 21.7647 40.9678C21.5253 41.5364 21.212 41.8887 20.8394 42.0343C20.5828 42.1193 20.3042 42.1208 20.0028 42.0088C19.692 41.9004 19.3832 41.7146 19.0857 41.4478C18.7737 41.1714 18.4699 40.8611 18.168 40.4733C17.8703 40.0687 17.5995 39.6229 17.3421 39.1566C17.2022 39.8701 17.0188 40.5547 16.8188 41.1692C16.5908 41.7946 16.3368 42.3535 16.0371 42.8231C15.7199 43.3301 15.3664 43.7441 14.9641 44.1158C14.5369 44.4513 14.061 44.7446 13.497 44.9497C12.6297 45.258 11.8283 45.2953 11.0835 45.0654C10.3283 44.8089 9.66918 44.331 9.09258 43.6523C8.5149 42.9433 8.01567 42.0505 7.63214 40.9592C7.21136 39.8825 6.93226 38.6738 6.75131 37.3041C6.66244 36.6646 6.60671 36.0275 6.57893 35.3795C6.54183 34.7351 6.53895 34.1233 6.57028 33.5441C6.59229 32.9686 6.63508 32.4462 6.70278 31.96C6.77978 31.4703 6.86001 31.0712 6.95798 30.7724C6.6847 28.7544 6.41005 26.742 6.13403 24.7353ZM21.9624 26.8853C22.0412 27.7739 22.1212 28.6927 22.1866 29.6018C22.2572 30.5243 22.307 31.3935 22.3412 32.2229C22.3941 33.045 22.4251 33.7837 22.4446 34.4656C22.4683 35.1306 22.4784 35.6783 22.4841 36.1051C22.7797 36.4493 23.132 36.664 23.5318 36.753C23.9461 36.8515 24.3281 36.8401 24.6821 36.7018C24.9574 36.6096 25.2128 36.3565 25.4453 35.9898C25.6633 35.6135 25.8479 35.097 25.9899 34.4439C26.1278 33.8077 26.2283 33.0483 26.2623 32.1463C26.3149 31.237 26.2784 30.2093 26.1816 29.0825C26.0764 27.8518 25.9155 26.7808 25.6844 25.8598C25.4627 24.9352 25.2183 24.1726 24.9235 23.5829C24.6473 22.986 24.3537 22.5644 24.0375 22.3049C23.7359 22.055 23.4355 21.9732 23.1561 22.0824C22.5827 22.2912 22.2003 22.8237 22.0182 23.6763C21.8454 24.5254 21.8219 25.5918 21.9624 26.8853ZM16.3147 33.5055C16.2654 33.0497 16.124 32.6606 15.8761 32.3284C15.6137 31.9866 15.3255 31.7162 14.9691 31.5184C14.594 31.3279 14.1931 31.2087 13.7478 31.1682C13.2984 31.1446 12.847 31.1984 12.3907 31.3768C11.7148 31.6256 11.1127 31.9528 10.5479 32.4034C9.97278 32.8273 9.49509 33.3358 9.09406 33.8756C8.69823 34.4287 8.40699 35.0022 8.21106 35.5997C8.02444 36.1937 7.95997 36.7705 8.03629 37.3229C8.10223 37.8488 8.25396 38.2645 8.5205 38.5894C8.78076 38.8708 9.08652 39.1037 9.45425 39.2205C9.84581 39.3433 10.2673 39.3778 10.728 39.3203C11.2032 39.2725 11.6855 39.1606 12.1885 38.9641C12.8084 38.7371 13.3785 38.4377 13.9082 38.0622C14.4274 37.6601 14.8845 37.2362 15.2587 36.7376C15.6339 36.2692 15.9221 35.7428 16.1243 35.1888C16.3172 34.6384 16.3869 34.0749 16.3147 33.5055ZM4.4017 22.363C4.10071 20.2741 3.79974 18.1853 3.49875 16.0964C6.49983 12.7681 9.52437 9.43578 12.5724 6.09941C8.92145 5.58526 5.28158 5.07193 1.65276 4.55936C1.40792 3.16361 1.1586 1.7747 0.904806 0.392664C7.52241 1.30015 14.1545 2.21731 20.8012 3.14411C21.4992 3.2544 22.1497 3.49049 22.7424 3.82581C23.331 4.17806 23.838 4.62353 24.2539 5.16585C24.6978 5.69724 25.0496 6.29527 25.3279 6.95263C25.5825 7.60398 25.7521 8.25785 25.8152 8.9687C25.8718 9.49821 25.8528 10.0266 25.7914 10.5563C25.7382 11.0521 25.6136 11.5298 25.4734 11.9677C25.3186 12.3959 25.1286 12.7613 24.8898 13.0845C24.6686 13.3701 24.4069 13.5797 24.0944 13.6865C23.9081 13.7593 23.7062 13.7922 23.4795 13.7889C23.2527 13.7856 23.0465 13.6976 22.862 13.5552C22.6672 13.3862 22.5033 13.1591 22.3548 12.834C22.2115 12.5223 22.1063 12.0884 22.0486 11.5286C22.0078 11.1768 22.0291 10.8467 22.096 10.606C22.1858 10.3411 22.2766 10.1064 22.354 9.89231C22.4541 9.65399 22.5408 9.43625 22.6223 9.2052C22.7131 8.97052 22.7272 8.70449 22.703 8.42281C22.682 8.23179 22.5679 8.07719 22.3596 7.92875C22.1513 7.78031 21.9016 7.66338 21.6147 7.56101C21.3184 7.46226 21.018 7.38045 20.6949 7.32285C20.3666 7.25196 20.0766 7.19672 19.8011 7.15115C19.3427 7.09536 18.8777 7.03191 18.4061 6.96081C13.6824 12.1268 9.01431 17.2609 4.4017 22.363Z" fill="white"/>
</svg>
