<svg width="24" height="25" viewBox="0 0 24 25" fill="none" xmlns="http://www.w3.org/2000/svg">
<path d="M5.69593 0.103493C3.02431 0.478455 0.872962 2.40014 0.216776 5.00145C0.151157 5.24518 0.0808515 5.6342 0.0527292 5.86855C-0.0175764 6.44975 -0.0175764 17.6143 0.0527292 18.1955C0.376135 20.928 2.32126 23.1497 4.96944 23.8152C5.21316 23.8809 5.60687 23.9512 5.83654 23.9793C6.41773 24.0496 17.5823 24.0496 18.1635 23.9793C20.6242 23.6887 22.6818 22.081 23.577 19.7563C23.7223 19.3766 23.891 18.6642 23.9473 18.1955C24.0176 17.6143 24.0176 6.44975 23.9473 5.86855C23.6567 3.40786 22.049 1.35024 19.7242 0.455021C19.3446 0.309721 18.6322 0.140987 18.1635 0.0847435C17.5213 0.00506401 6.25369 0.0238113 5.69593 0.103493ZM19.5743 3.15944C20.1789 3.36099 20.6663 3.84844 20.8726 4.45775C20.971 4.74835 20.9757 5.32017 20.8819 5.62951C20.4976 6.8997 18.9837 7.4434 17.8822 6.70753C17.2354 6.28101 16.8933 5.51702 17.0104 4.77179C17.1323 4.02186 17.6432 3.40786 18.3416 3.16882C18.6603 3.06102 19.2649 3.05164 19.5743 3.15944ZM13.0311 5.54046C14.4232 5.77013 15.6512 6.39819 16.6402 7.39184C17.901 8.64797 18.5619 10.2463 18.5619 12.032C18.5619 13.8178 17.901 15.4161 16.6402 16.6722C15.384 17.933 13.7858 18.5939 12 18.5939C10.2142 18.5939 8.61596 17.933 7.35983 16.6722C6.09901 15.4161 5.43814 13.8178 5.43814 12.032C5.43814 10.2463 6.09901 8.64797 7.35983 7.39184C8.33005 6.41694 9.56274 5.7795 10.922 5.54046C11.4047 5.46078 12.5437 5.45609 13.0311 5.54046Z" fill="white"/>
<path d="M18.6978 4.55618C18.4259 4.70148 18.3228 5.09988 18.4869 5.35298C18.8056 5.84043 19.5461 5.62483 19.5461 5.04832C19.5461 4.62649 19.0681 4.35464 18.6978 4.55618Z" fill="white"/>
<path d="M11.0907 6.95127C8.64875 7.39185 6.84424 9.54789 6.84424 12.032C6.84424 15.2145 9.74552 17.6612 12.8718 17.1175C16.3074 16.5175 18.1728 12.7632 16.5792 9.66506C15.5481 7.67307 13.2889 6.55287 11.0907 6.95127Z" fill="white"/>
</svg>
