<svg width="24" height="25" viewBox="0 0 24 25" fill="none" xmlns="http://www.w3.org/2000/svg">
<path d="M11.133 0.00704193C9.31897 0.180922 7.95144 0.575674 6.46642 1.34168C4.20129 2.51654 2.37321 4.38221 1.24065 6.67554C0.803603 7.55433 0.601527 8.09476 0.371255 8.95946C0.0892892 10.0497 0.00469943 10.7123 0 11.9154C0 12.5169 0.0234972 13.1655 0.0563932 13.4192C0.314862 15.346 0.916389 17.0049 1.92677 18.5557L2.26513 19.0773L1.51792 21.2814C1.10437 22.4985 0.775406 23.4948 0.784805 23.5042C0.794204 23.5136 1.81868 23.194 3.06873 22.7946C4.31878 22.3951 5.35735 22.0662 5.38085 22.0662C5.39965 22.0662 5.59232 22.1743 5.8085 22.3105C6.02467 22.4421 6.47582 22.6865 6.80948 22.8463C9.85001 24.2984 13.3229 24.4253 16.4339 23.1893C19.9585 21.7936 22.6654 18.7343 23.6334 15.0593C23.9295 13.9315 24 13.3158 24 12.0094C24 10.7029 23.9295 10.0873 23.6334 8.95946C22.4962 4.65008 19.0421 1.29939 14.681 0.27961C13.9479 0.11043 13.1866 0.0211411 12.2608 0.00704193C11.7439 -0.00235748 11.2363 -0.00235748 11.133 0.00704193ZM8.2663 5.58057C8.34619 5.62286 8.45428 5.73565 8.51067 5.83904C8.64696 6.08811 9.79362 8.83727 9.82651 9.00645C9.86881 9.21793 9.65733 9.57978 9.19209 10.1061C8.70335 10.656 8.59996 10.8298 8.64226 11.0272C8.72215 11.3844 9.80772 12.8271 10.4797 13.4615C11.5183 14.4437 13.0879 15.3789 13.7881 15.4306C14.15 15.4541 14.2769 15.3554 14.8314 14.6223C15.0805 14.2886 15.3436 13.955 15.4235 13.8798C15.6021 13.6965 15.87 13.6589 16.1754 13.7717C16.5608 13.9174 18.9246 15.0687 19.0938 15.1956L19.2536 15.3131L19.2254 15.8112C19.1596 17.0895 18.7084 17.7521 17.5242 18.3301C16.3963 18.88 15.5128 18.8659 13.7881 18.269C11.4666 17.4654 10.2401 16.6994 8.57176 15.0217C7.73527 14.1852 7.14314 13.4756 6.46642 12.5028C5.34795 10.905 4.92031 9.66907 5.04719 8.41432C5.15058 7.40865 5.50304 6.66614 6.21265 5.95652C6.55571 5.61346 7.00215 5.47248 7.67887 5.49598C7.96554 5.50538 8.17701 5.53357 8.2663 5.58057Z" fill="white"/>
</svg>
