<svg width="24" height="25" viewBox="0 0 24 25" fill="none" xmlns="http://www.w3.org/2000/svg">
<path d="M2.67807 0.0786343C1.36862 0.299221 0.242216 1.44909 0.0404016 2.77732C0.00754809 2.9979 -0.00653198 6.00165 0.00285474 12.2532L0.0169348 21.4053L0.148349 21.7807C0.519124 22.8273 1.22313 23.5313 2.26975 23.9021L2.64522 24.0335H12.0085H21.3717L21.7472 23.9021C22.8314 23.5173 23.5776 22.7382 23.9155 21.6399C23.9953 21.3724 24 20.9453 24 12.0185V2.67875L23.8686 2.30329C23.4978 1.25667 22.7938 0.552664 21.7472 0.181889L21.3717 0.0504742L12.1493 0.0457802C6.94433 0.0410862 2.81887 0.0551662 2.67807 0.0786343ZM7.10391 4.60303C7.69996 4.76261 8.18338 5.16623 8.4556 5.73882C8.64333 6.14245 8.68557 6.71035 8.55885 7.14214C8.30541 8.0151 7.51223 8.61585 6.62518 8.61585C5.80854 8.61585 5.09046 8.16998 4.75723 7.45659C4.02037 5.90309 5.44246 4.17124 7.10391 4.60303ZM16.3123 9.37148C17.9503 9.55453 18.9312 10.4932 19.2785 12.211C19.4381 12.9995 19.4709 13.7081 19.4709 16.5195V19.2322L19.3113 19.3918L19.1518 19.5514H17.8658C16.6737 19.5514 16.5751 19.5467 16.4343 19.4575C16.3498 19.4059 16.27 19.3167 16.256 19.2604C16.2466 19.1994 16.2278 17.9181 16.2184 16.4068C16.2043 13.9851 16.1949 13.6284 16.1245 13.3796C15.9978 12.9384 15.8242 12.624 15.5942 12.4222C15.3126 12.1734 15.0404 12.0889 14.5429 12.0889C14.1815 12.0889 14.1017 12.1077 13.8483 12.2297C13.5056 12.4034 13.2616 12.6615 13.0832 13.0464C12.7876 13.6847 12.7923 13.6424 12.7641 16.604L12.7359 19.312L12.628 19.42C12.5247 19.5279 12.5013 19.5279 11.2575 19.542C9.86829 19.5561 9.77443 19.542 9.66648 19.2839C9.62893 19.1853 9.61485 17.9275 9.62424 14.445L9.63832 9.73287L9.76973 9.62023L9.90115 9.50759H11.1918C11.985 9.50759 12.52 9.52637 12.5717 9.55453C12.7266 9.63901 12.7782 9.79389 12.8063 10.2491L12.8298 10.6856L13.0128 10.451C13.6464 9.61554 14.8855 9.21191 16.3123 9.37148ZM8.01911 9.63901C8.10829 9.72818 8.15991 9.84082 8.18338 9.98162C8.19746 10.0943 8.20685 12.2157 8.19746 14.6938C8.18338 18.9412 8.17869 19.2088 8.0989 19.3214C7.94871 19.542 7.84546 19.5561 6.52662 19.542L5.29696 19.5279L5.17024 19.3965L5.03883 19.2698L5.02475 14.6093C5.02006 12.0514 5.02475 9.90183 5.03883 9.84551C5.05291 9.7845 5.12331 9.68125 5.18902 9.62023L5.31104 9.50759H6.59702H7.8877L8.01911 9.63901Z" fill="white"/>
</svg>
